<?xml version="1.0" encoding="utf-8"?>
<!-- Generator: Adobe Illustrator 22.1.0, SVG Export Plug-In . SVG Version: 6.00 Build 0)  -->
<svg version="1.1" id="Слой_1" xmlns="http://www.w3.org/2000/svg" xmlns:xlink="http://www.w3.org/1999/xlink" x="0px" y="0px"
	 viewBox="0 0 49.6 56.7" style="enable-background:new 0 0 49.6 56.7;" xml:space="preserve">
<style type="text/css">
	.st0{fill:#9FA6A8;}
</style>
<g>
	<path class="st0" d="M49.6,23.9c0-2.9-1.4-4.3-4.3-4.3h-1.2c-1.6,0-1.6,0-1.6,1.6c0,5.3,0,10.6,0,15.9c0,2.9-2.1,5.9-4.6,6.6
		c-9,2.4-18,4.8-27,7.2c-0.7,0.2-1.5,0.2-2.2,0.1c-1-0.2-1.3-1-0.4-1.7c0.8-0.6,1.6-1,2.5-1.4c7.4-3,14.9-6,22.4-9
		c3.2-1.3,4.9-3.8,4.9-7.2c0-9.2,0-18.3,0-27.5c0-3.5-3-5.3-6.1-3.6c-1.6,0.9-3.2,1.8-4.8,2.8c-7.7,4.5-15.5,8.9-23.2,13.4
		C1.3,18.3,0,20.5,0,23.6c0,8.8,0.1,17.7,0,26.5c-0.1,3.4,2.6,6.7,6.7,6.6c6.3-0.1,12.5,0,18.8,0h18.9c3.5,0,5.2-1.8,5.2-5.2
		c0-5,0-10,0-15C49.6,32.3,49.6,28.1,49.6,23.9z M27,16.6c1.7-0.3,3,1,2.9,2.7c-0.1,2-1.8,4.1-3.8,4.5c-1.8,0.4-3.2-0.7-3.2-2.5
		C23,19,24.8,16.9,27,16.6z"/>
</g>
</svg>
