<?xml version="1.0" encoding="utf-8"?>
<!-- Generator: Adobe Illustrator 22.1.0, SVG Export Plug-In . SVG Version: 6.00 Build 0)  -->
<svg version="1.1" id="Слой_1" xmlns="http://www.w3.org/2000/svg" xmlns:xlink="http://www.w3.org/1999/xlink" x="0px" y="0px"
	 viewBox="0 0 57.4 54.7" style="enable-background:new 0 0 57.4 54.7;" xml:space="preserve">
<style type="text/css">
	.st0{fill:#9FA6A8;}
</style>
<g>
	<path class="st0" d="M52.1,9.1c-6,2.9-12,5.7-17.9,8.6c-4.5,2.1-9,4.3-13.5,6.4c-0.8,0.4-1.2,0.3-1.9-0.3c-4.1-3.6-8.3-7-12.4-10.6
		c-0.8-0.7-1.6-1.4-2.3-2c-6,9.4-6.1,25,4.9,35.5C19.5,56.9,36,57.4,47.1,48C59.1,37.9,60.5,20.9,52.1,9.1z"/>
	<path class="st0" d="M49.7,6.2c-0.1-0.1-0.1-0.2-0.1-0.2c-1.8-2.1-1.8-2.1-4.3-0.9c-8,3.8-16.1,7.7-24.1,11.5
		c-0.6,0.3-0.9,0.2-1.4-0.2c-4-3.4-8-6.8-12.1-10.3L6,8.1c1.1,1,2.2,1.9,3.3,2.8c3.2,2.7,6.3,5.3,9.5,8.1c1.4,1.2,1.4,1.3,3.1,0.5
		C31.1,15.1,40.4,10.7,49.7,6.2z"/>
	<path class="st0" d="M44.2,1.5c-0.9-0.5-1.7-1.1-2.6-1.5c-0.3-0.1-0.8,0-1.2,0.2C34.3,3.1,28.2,6,22.2,8.9
		c-0.6,0.3-1.1,0.4-1.7-0.2c-2.1-1.9-4.3-3.6-6.4-5.5c-1.7-1.4-2-1.4-3.6,0.4c2.4,2,4.7,4,7.1,6c1,0.8,1.9,1.7,2.9,2.5
		c0.3,0.2,0.8,0.3,1.1,0.2c7.4-3.5,14.8-7,22.2-10.5C43.9,1.8,44,1.7,44.2,1.5z"/>
</g>
</svg>
