<?xml version="1.0" encoding="utf-8"?>
<!-- Generator: Adobe Illustrator 22.1.0, SVG Export Plug-In . SVG Version: 6.00 Build 0)  -->
<svg version="1.1" id="Слой_1" xmlns="http://www.w3.org/2000/svg" xmlns:xlink="http://www.w3.org/1999/xlink" x="0px" y="0px"
	 viewBox="0 0 127.8 145.5" style="enable-background:new 0 0 127.8 145.5;" xml:space="preserve">
<style type="text/css">
	.st0{fill:none;stroke:#F9E6E5;stroke-width:7.0866;stroke-linecap:round;stroke-linejoin:round;stroke-miterlimit:22.9256;}
</style>
<g>
	<path class="st0" d="M123.7,62.1l-10.3,43.5H35.6 M110.2,121.3H38L20.7,22H4 M110.2,121.3c5.4,0,9.8,4.4,9.8,9.8
		c0,5.4-4.4,9.8-9.8,9.8c-5.4,0-9.8-4.4-9.8-9.8C100.3,125.7,104.7,121.3,110.2,121.3L110.2,121.3z M34.7,121.3
		c5.4,0,9.8,4.4,9.8,9.8c0,5.4-4.4,9.8-9.8,9.8c-5.4,0-9.8-4.4-9.8-9.8C24.9,125.7,29.3,121.3,34.7,121.3L34.7,121.3z M53,28.1
		C52.1,13.9,63,4.2,76.4,4.4c10.7,0.1,20.7,7,19.8,20.6c-0.7,11.3-12.3,18.8-21.6,23.7v9.3 M74.5,72.6v9.7"/>
</g>
</svg>
