<?xml version="1.0" encoding="utf-8"?>
<!-- Generator: Adobe Illustrator 22.1.0, SVG Export Plug-In . SVG Version: 6.00 Build 0)  -->
<svg version="1.1" id="Слой_1" xmlns="http://www.w3.org/2000/svg" xmlns:xlink="http://www.w3.org/1999/xlink" x="0px" y="0px"
	 viewBox="0 0 144 142.8" style="enable-background:new 0 0 144 142.8;" xml:space="preserve">
<style type="text/css">
	.st0{fill:none;stroke:#F9E6E5;stroke-width:7.0866;stroke-linecap:round;stroke-linejoin:round;stroke-miterlimit:22.9256;}
</style>
<g>
	<path class="st0" d="M139.9,47.5v86.3c0,4.2-1.5,5.1-5.7,5.1H9.6c-4.2,0-5.7-0.9-5.7-5.1V42.1c-0.1,0-0.5-4.1,1.6-8.1L19.9,6.3
		c0.6-1.2,1.7-2.6,3.8-2.6h96.1c2.4,0,3.2,1.3,3.8,2.6l14.2,26.2c1.8,3.3,2,5.2,2,9.1C139.9,43.6,139.9,45.6,139.9,47.5L139.9,47.5z
		 M4.1,38.1h135.6 M21.1,105.7h34.2v16.5H21.1V105.7L21.1,105.7z M96.3,96.2l8.8,8.5l17.6-16.9 M94.7,122.6h28.8 M54.6,38.1h34.2
		v42.2l-17-9l-17.2,9V38.1L54.6,38.1z M62.9,3.8l-8.3,34.3h34.2L79.7,3.8"/>
</g>
</svg>
