<?xml version="1.0" encoding="utf-8"?>
<!-- Generator: Adobe Illustrator 22.1.0, SVG Export Plug-In . SVG Version: 6.00 Build 0)  -->
<svg version="1.1" id="Слой_1" xmlns="http://www.w3.org/2000/svg" xmlns:xlink="http://www.w3.org/1999/xlink" x="0px" y="0px"
	 viewBox="0 0 153 148.6" style="enable-background:new 0 0 153 148.6;" xml:space="preserve">
<style type="text/css">
	.st0{fill:none;stroke:#F9E6E5;stroke-width:7.0866;stroke-linecap:round;stroke-linejoin:round;stroke-miterlimit:22.9256;}
</style>
<g>
	<path class="st0" d="M10.4,4h92.7v94.3H10.4V4L10.4,4z M10.4,51.2h92.7 M10.4,120.4h118.1V25.2h17.4 M32.8,120.4
		c5.6,0,10.2,4.6,10.2,10.2s-4.6,10.2-10.2,10.2c-5.6,0-10.2-4.6-10.2-10.2S27.2,120.4,32.8,120.4L32.8,120.4z M108.7,120.4
		c5.6,0,10.2,4.6,10.2,10.2s-4.6,10.2-10.2,10.2c-5.6,0-10.2-4.6-10.2-10.2S103.1,120.4,108.7,120.4L108.7,120.4z"/>
</g>
</svg>
