<?xml version="1.0" encoding="utf-8"?>
<!-- Generator: Adobe Illustrator 22.1.0, SVG Export Plug-In . SVG Version: 6.00 Build 0)  -->
<svg version="1.1" id="Слой_1" xmlns="http://www.w3.org/2000/svg" xmlns:xlink="http://www.w3.org/1999/xlink" x="0px" y="0px"
	 viewBox="0 0 61 63.9" style="enable-background:new 0 0 61 63.9;" xml:space="preserve">
<style type="text/css">
	.st0{fill:#9FA6A8;}
</style>
<g>
	<path class="st0" d="M43.1,44.7c-0.7,0-1.2,0.4-1.4,1c-0.3,1.1,0.5,2.2,1.6,2.5c0.7,0.2,1.4-0.2,1.6-0.9
		C45.3,46.2,44.3,44.8,43.1,44.7z M49.5,45c0-0.7-0.3-1.3-0.7-1.8c-0.2-0.2-0.5-0.5-0.8-0.3c-0.3,0.2-0.3,0.5-0.2,0.8
		c0.2,0.6,0.5,1.2,0.7,1.7c0.1,0.3,0.3,0.6,0.6,0.5C49.5,45.8,49.5,45.4,49.5,45z"/>
	<path class="st0" d="M0,28.5c0-0.5,0.1-1,0.1-1.6c0.2-2.6,0.8-5.2,1.8-7.7c1.4-3.7,3.5-7,6.2-9.8c4.4-4.6,9.7-7.5,15.9-8.8
		c2.5-0.5,5.1-0.7,7.7-0.6c5.8,0.4,11.1,2.3,15.6,6c4.8,3.9,7.9,9,9.2,15.1c0.4,2.1,0.6,4.3,0.5,6.5c-0.3,5.8-2.2,11.1-5.6,15.8
		c-0.2,0.2-0.4,0.5-0.6,0.8c-0.5-2.4-1.6-4.3-3.4-5.9c-1.8-1.6-3.8-2.6-6.3-2.5c1.3-0.6,4.2-0.6,6.8,1.3c0.1-0.5,0.3-1,0.4-1.5
		c0.5-2.1,0.6-4.3,0.4-6.5c-0.4-4.3-1.8-8.2-4.1-11.7C41.5,12.6,37.4,9.1,32,7c-2.6-1-5.3-1.4-8-1.3c-3.5,0.2-6.6,1.4-9.2,3.6
		c-3.2,2.7-5.1,6.1-6,10.1C8.2,21.7,8,23.8,8.2,26c0.3,5,1.9,9.5,5,13.5c2,2.6,4.5,4.5,7.4,6c2.5,1.3,5.3,2.3,8.2,2.7
		c0.8,0.1,1.6,0.2,2.4,0.2c0.1,0,0.1,0,0.2,0c-0.4-1.4-0.7-2.8-0.5-4.3c0.3,0.4,0.5,0.7,0.7,1.1c1.2,1.9,3,3.2,5,4.2
		c1.6,0.9,3.4,1.3,5.2,1.6c2.6,0.4,5.2,0.7,7.7,1.6c2.4,0.9,4.5,2.2,6.5,3.8c1.9,1.5,3.5,3.4,4.5,5.6c0.2,0.5,0.4,1,0.6,1.4v0.3
		c-0.3,0.3-0.4,0.3-0.6-0.1c-0.2-0.4-0.4-0.8-0.6-1.1c-0.8-0.9-1.5-1.8-2.4-2.6c-2.2-2.1-4.7-3.6-7.6-4.7c-2.2-0.8-4.6-1.3-7-1.4
		c-2.2-0.1-4.5,0-6.6,0.6c-1.7,0.5-3.5,0.8-5.3,1c-2.3,0.2-4.5,0.1-6.8-0.2c-2.4-0.3-4.7-0.9-6.9-1.7c-4-1.4-7.5-3.5-10.5-6.5
		C4.6,44.5,3,41.9,1.9,39c-0.9-2.4-1.5-4.8-1.7-7.4c0-0.5-0.1-1-0.1-1.6C0,30.1,0,28.5,0,28.5z"/>
	<path class="st0" d="M43.1,44.7c1.2,0,2.2,1.5,1.8,2.7c-0.2,0.7-0.9,1-1.6,0.9c-1.1-0.3-1.9-1.4-1.6-2.5
		C41.9,45.1,42.4,44.7,43.1,44.7z M49.5,45c0,0.4,0,0.8-0.3,0.9c-0.3,0.1-0.5-0.3-0.6-0.5c-0.3-0.6-0.5-1.1-0.7-1.7
		c-0.1-0.3-0.1-0.6,0.2-0.8c0.3-0.2,0.6,0.1,0.8,0.3C49.2,43.7,49.4,44.4,49.5,45z"/>
</g>
</svg>
