<?xml version="1.0" encoding="utf-8"?>
<!-- Generator: Adobe Illustrator 22.1.0, SVG Export Plug-In . SVG Version: 6.00 Build 0)  -->
<svg version="1.1" id="_x31_" xmlns="http://www.w3.org/2000/svg" xmlns:xlink="http://www.w3.org/1999/xlink" x="0px" y="0px"
	 viewBox="0 0 100.8 109.3" style="enable-background:new 0 0 100.8 109.3;" xml:space="preserve">
<style type="text/css">
	
		.st0{fill-rule:evenodd;clip-rule:evenodd;fill:none;stroke:#C4CDCF;stroke-width:4;stroke-linecap:round;stroke-linejoin:round;stroke-miterlimit:22.9256;}
</style>
<path class="st0" d="M48,26.5c-1-0.8-1.7-2-1.7-3.5c0-2.4,1.9-4.3,4.3-4.3c2.4,0,4.3,1.9,4.3,4.3"/>
<polygon class="st0" points="30.6,95.1 40.8,95.1 40.8,85.2 2.4,85.2 31.7,57.5 11.7,56.7 39.6,30.7 26.5,29.9 50.4,5.9 74.3,29.9 
	61.2,30.7 89.1,58.1 69.1,57.5 98.4,85.2 59.5,85.2 59.5,95.1 69.7,95.1 69.7,107.1 30.6,107.1 "/>
<path class="st0" d="M57.8,10.8c16.3-23,39.8,8.6-2.8,13.5"/>
</svg>
