<?xml version="1.0" encoding="utf-8"?>
<!-- Generator: Adobe Illustrator 22.1.0, SVG Export Plug-In . SVG Version: 6.00 Build 0)  -->
<svg version="1.1" id="_x31_" xmlns="http://www.w3.org/2000/svg" xmlns:xlink="http://www.w3.org/1999/xlink" x="0px" y="0px"
	 viewBox="0 0 108.9 81.5" style="enable-background:new 0 0 108.9 81.5;" xml:space="preserve">
<style type="text/css">
	
		.st0{fill-rule:evenodd;clip-rule:evenodd;fill:none;stroke:#C4CDCF;stroke-width:4;stroke-linecap:round;stroke-linejoin:round;stroke-miterlimit:22.9256;}
</style>
<path class="st0" d="M19.2,19.8h17.6c0,0,0,0,0,0v38.1c0,0,0,0,0,0H2.1c0,0,0,0,0,0V38.5L19.2,19.8z"/>
<rect x="36.8" y="2.1" class="st0" width="70" height="55.8"/>
<path class="st0" d="M20.8,79.3c5.3,0,9.6-4.3,9.6-9.6c0-5.3-4.3-9.6-9.6-9.6c-5.3,0-9.6,4.3-9.6,9.6C11.2,75,15.5,79.3,20.8,79.3z"
	/>
<path class="st0" d="M80.5,79c5.3,0,9.6-4.3,9.6-9.6c0-5.3-4.3-9.6-9.6-9.6s-9.6,4.3-9.6,9.6C70.9,74.6,75.2,79,80.5,79z"/>
<path class="st0" d="M2.1,67.4H10 M31.6,67.4h38.4 M91.8,67.4h14.9"/>
</svg>
