<?xml version="1.0" encoding="utf-8"?>
<!-- Generator: Adobe Illustrator 22.1.0, SVG Export Plug-In . SVG Version: 6.00 Build 0)  -->
<svg version="1.1" id="Layer_1" xmlns="http://www.w3.org/2000/svg" xmlns:xlink="http://www.w3.org/1999/xlink" x="0px" y="0px"
	 viewBox="0 0 566.4 481.2" style="enable-background:new 0 0 566.4 481.2;" xml:space="preserve">
<style type="text/css">
	.st0{fill:#C4CDCF;}
</style>
<g>
	<path class="st0" d="M388,220c-8.9,0.4-23-2.3-22.6,11.5c12.1,0.6,24.8,0.4,36.6,0.1C404.2,221.8,394.5,219.8,388,220z"/>
	<path class="st0" d="M551.4,180c-8.1-1.3-16.3-2.4-24.6-3.5C497.4,74.7,399.6,0,283.3,0C168,0,70.8,73.6,40.5,174.1
		c-6.7,1.3-12.9,2.6-19.2,3.9c-17.9,3.2-19.1,15.8-19.1,16.6c-4,16.2-1.6,69.9,0,88.1c1.2,19.4,17,17.8,17.8,18.2
		c5.9,1.3,12.5,2.5,19.6,3.5C69,406.3,166.9,481.2,283.3,481.2c115.9,0,213.5-74.4,243.3-175.8c15.3-2,23.7-3.3,23.7-3.3
		c14.3-1.2,14.6-18.3,14.6-18.5c2.7-25,0.6-85.5,0.5-85.5C565.2,180.3,551.4,180,551.4,180z M283.3,58.7
		c78.9,0,146.6,45.5,175.7,110.5c-138.8-11.6-285.4-6.6-350-3.4C139.1,102.7,205.7,58.7,283.3,58.7z M421.2,245.1
		c0.5,8.7-0.1,17-0.1,25.7c-6.2,0.4-11.7,0.3-17.8,0.1c-0.8-8.6,0.6-16.1-0.9-25c-12.4-0.8-24.5-0.7-37.1-0.1
		c-0.7,7.8-0.5,13.6-0.3,21.1c0.1,2.8-1.1,4.5-4.2,4.3c-3.6-0.3-5.8-0.5-9.2,0c-3.4,0.5-5.4-1.4-5.4-4.2c-0.1-16.4-1.5-33,0.9-49.1
		c0.5-3.7,3.3-7.2,6.5-8.8c3.1-1.7,7.1-2.5,10.8-2.6c9.4-0.2,19.9,0.1,28.9-0.1c9.7-0.2,23.7-0.8,26.8,9.7
		C423,226,420.6,235.4,421.2,245.1z M282.3,226c17.6,7.5,35.3,11.5,51.4,20.6c3.5,2,3.5,7.6,3.8,11.3c0.2,3.9-2.3,8.3-5.7,11
		c-2.5,2-6,2.2-9.2,2.2c-21.2,0-42.3,0-63.5,0c-1-4.2-0.3-8.9-0.4-13.5c17.5-0.1,33.6-0.1,51.5,0c3.5,0,3.3-4.5,0-5.5
		c-14.1-4.5-26.3-9.8-40.1-14.4c-4.9-1.7-8.9-5.2-10.2-10.6c-0.9-3.4-1.7-5.5-0.5-9.1c5.6-16.3,24.3-10.6,37.9-11.2
		c12.7-0.6,27,0.1,39.8-0.1c0.8,5,0.3,8.8,0.2,13.8c-18.1,0-34.8,0.2-53.3,0C280.3,220.3,279,224.6,282.3,226z M171.4,257.6
		c17.5-0.1,33.6-0.1,51.5,0c3.5,0,3.2-4.5-0.1-5.5c-14.1-4.5-26.3-9.8-40-14.4c-4.9-1.7-8.9-5.2-10.2-10.6c-0.8-3.3-1.6-5.5-0.4-9.1
		c5.6-16.3,24.3-10.6,37.9-11.2c12.6-0.5,27,0.1,39.9-0.1c0.6,5,0.3,8.9,0,13.8c-17.7,0.2-35.2,0-52.8,0.1c-1.4,0-2.5,0.3-3.8,1.1
		c-2.1,1.4-0.1,4.3,1.9,4.9c12.6,3.2,24,10.3,36.6,13c13.4,2.9,26.7,17.2,12.1,30c-1.4,1.2-1.4,0.1-3,1c-1.5,1-2.6,0.5-4,0.5
		c-21.8,0.2-43.4,0-65.3,0.1C170.9,266.9,171.7,262.2,171.4,257.6z M162.8,270.9c-6.8,0.6-11.5-0.1-18.6,0.4
		c-0.4-21.4-0.1-43-0.1-64.5c6.7-0.3,12-0.3,18.7,0C163,228.1,163,249.5,162.8,270.9z M96.4,261.6c-5.4-11.4-11.2-21.4-16.5-32.9
		c-1.2-2.6-5.7-3-5.8-0.1C73.6,241.9,74,253.8,74,267c0,2.6-0.5,4.7-3.9,4.3c-3.2-0.4-4.3-0.5-7.4,0c-3.7,0.6-5-1.3-4.9-4.3
		c0.3-15.4,0.2-30.3,0-45.4c0-4.2,0.9-8.6,4.4-11.1c6.1-4.3,13.8-4.9,20.7-2.4c4.6,1.6,7.6,5.3,9.7,9.7
		c5.4,11.6,11.1,21.1,17.1,33.5c2,4.3,7.6,2.4,7.3-2.3c-0.9-14.9-0.1-27.7-0.2-42.3c5.9-0.2,10.3-0.2,16.1,0
		c0.1,16.9,0.1,34,0.1,50.9c0,3.6-1.6,7.5-4.4,9.4C119.1,274,101.7,272.9,96.4,261.6z M283.3,422.5c-79.1,0-147-45.7-176-110.9
		c82.9,6.2,178.4,6.6,178.4,6.6c67.3,1.1,127.3-2,173.2-5.8C429.6,377.2,362,422.5,283.3,422.5z M504.4,265.3
		c-8.1,8.3-26.3,8.7-32.8-1.8c-6.9-11.2-11.9-23.4-18.3-34.4c-0.8-1.4-1.9-3.4-3.4-2.9c-1.8,0.6-2.6,2.7-2.6,4.5
		c-0.1,13.3,0.1,26.9,0,40.2c-5.7,0.6-9.9,0-15.9,0.4c-0.2-12.7-0.4-26,0-38.7c0.2-6.7-2-14.3,2.2-19.7c5-6.4,14.3-7.2,21.9-5.2
		c4.8,1.4,8.4,5.4,10.7,10c5.7,11.8,12.1,22.9,18.2,34.8c1.4,2.8,6.1,1.6,6.1-1.7c-0.3-15.1,0.1-29.1-0.1-44
		c5.7,0,10.6-0.4,16.2,0.2c0.3,16.3,0,32.8,0.2,49C506.8,259.1,506.5,263.2,504.4,265.3z"/>
</g>
</svg>
