<?xml version="1.0" encoding="utf-8"?>
<!-- Generator: Adobe Illustrator 22.1.0, SVG Export Plug-In . SVG Version: 6.00 Build 0)  -->
<svg version="1.1" id="Слой_1" xmlns="http://www.w3.org/2000/svg" xmlns:xlink="http://www.w3.org/1999/xlink" x="0px" y="0px"
	 viewBox="0 0 145.2 145" style="enable-background:new 0 0 145.2 145;" xml:space="preserve">
<style type="text/css">
	.st0{fill:none;stroke:#F9E6E5;stroke-width:7.0866;stroke-linecap:round;stroke-linejoin:round;stroke-miterlimit:22.9256;}
</style>
<g>
	<path class="st0" d="M37.5,64c8.2,0,14.8,6.6,14.8,14.8c0,8.2-6.6,14.8-14.8,14.8c-8.2,0-14.8-6.6-14.8-14.8
		C22.7,70.6,29.3,64,37.5,64L37.5,64z M37.5,106.9c18.5,0,33.5,15,33.5,33.5c0,0.1,0,0.2,0,0.3H4c0-0.1,0-0.2,0-0.3
		C4,121.9,19,106.9,37.5,106.9L37.5,106.9z M101.6,4.2c21.4,0,38.7,17.3,38.7,38.7c0,21.4-17.3,38.7-38.7,38.7
		c-4.7,0-9.3-0.9-13.5-2.4L88,79.3L67.2,95.2l5.2-26.9l0,0c-5.9-6.8-9.5-15.7-9.5-25.4C62.9,21.5,80.3,4.2,101.6,4.2L101.6,4.2z
		 M89.3,33c-0.5-8.2,5.7-13.7,13.4-13.6c6.2,0.1,11.9,4,11.4,11.9c-0.2,3.3-2,5.9-4.4,8.2c-8.1,7.6-8.1,8.3-8.1,13.9 M101.7,65.2
		v1.9"/>
</g>
</svg>
