<?xml version="1.0" encoding="utf-8"?>
<!-- Generator: Adobe Illustrator 22.1.0, SVG Export Plug-In . SVG Version: 6.00 Build 0)  -->
<svg version="1.1" id="_x31_" xmlns="http://www.w3.org/2000/svg" xmlns:xlink="http://www.w3.org/1999/xlink" x="0px" y="0px"
	 viewBox="0 0 109 108.3" style="enable-background:new 0 0 109 108.3;" xml:space="preserve">
<style type="text/css">
	.st0{fill-rule:evenodd;clip-rule:evenodd;fill:none;stroke:#C4CDCF;stroke-width:4;stroke-miterlimit:22.9256;}
</style>
<ellipse transform="matrix(0.9903 -0.1387 0.1387 0.9903 -6.9826 8.0824)" class="st0" cx="54.5" cy="54.1" rx="52" ry="52"/>
<g>
	<path class="st0" d="M80.6,9.1c-5.3,8.9-15,14.8-26.1,14.8c-11.1,0-20.8-5.9-26.1-14.8c7.7-4.4,16.6-7,26.1-7S72.9,4.7,80.6,9.1z"
		/>
	<path class="st0" d="M105.2,65.7c-10-2.4-18.6-9.9-21.9-20.5c-3.3-10.6-0.5-21.6,6.4-29.3c10.3,9.5,16.7,23.1,16.7,38.2
		C106.5,58.1,106.1,62,105.2,65.7z"/>
	<path class="st0" d="M18.8,16.3c7,7.6,9.9,18.6,6.7,29.2C22.4,56.1,13.9,63.7,3.9,66.3c-0.9-3.9-1.4-8-1.4-12.1
		C2.5,39.2,8.8,25.8,18.8,16.3z"/>
	<path class="st0" d="M7.5,76.5c9.4-4.3,20.7-3.7,29.9,2.6c9.1,6.3,13.7,16.7,13.1,27C31.5,104.5,15.3,92.9,7.5,76.5z"/>
	<path class="st0" d="M60,105.9C59,95.6,63.3,85.1,72.3,78.5c9-6.5,20.3-7.4,29.8-3.4C94.7,91.8,78.8,103.9,60,105.9z"/>
</g>
<ellipse transform="matrix(0.9871 -0.1602 0.1602 0.9871 -7.9686 9.4289)" class="st0" cx="54.5" cy="54.1" rx="13.6" ry="13.6"/>
</svg>
