<?xml version="1.0" encoding="utf-8"?>
<!-- Generator: Adobe Illustrator 22.1.0, SVG Export Plug-In . SVG Version: 6.00 Build 0)  -->
<svg version="1.1" id="Слой_1" xmlns="http://www.w3.org/2000/svg" xmlns:xlink="http://www.w3.org/1999/xlink" x="0px" y="0px"
	 viewBox="0 0 144.8 143.3" style="enable-background:new 0 0 144.8 143.3;" xml:space="preserve">
<style type="text/css">
	.st0{fill:none;stroke:#F9E6E5;stroke-width:7.0866;stroke-miterlimit:22.9256;}
	.st1{fill:#FFFFFF;stroke:#F9E6E5;stroke-width:1.4173;stroke-miterlimit:22.9256;}
</style>
<g>
	<path class="st0" d="M130.3,79.8c-0.5,0.7-1,1.3-1.6,2l-1.5,1.5l0,0l-53.2,53.2c-5.1,5.1-13.5,5.1-18.6,0L7.5,88.7
		c-5.1-5.1-5.1-13.5,0-18.6l53.2-53.2l0,0l1.5-1.5c0.6-0.6,1.3-1.1,2-1.6c17.5-14.2,43.5-13.2,59.8,3.1l3,3
		C143.4,36.3,144.5,62.3,130.3,79.8L130.3,79.8z M114.1,28.7c3.9,3.9,3.9,10.3,0,14.2c-3.9,3.9-10.3,3.9-14.2,0
		C96,39,96,32.7,99.9,28.7C103.8,24.8,110.2,24.8,114.1,28.7L114.1,28.7z"/>
	<path class="st1" d="M37.7,70.1l8.7,13.1V70c0-0.9,0.2-1.5,0.6-1.9c0.4-0.4,0.9-0.6,1.5-0.6c0.6,0,1.2,0.2,1.5,0.6
		c0.4,0.4,0.6,1.1,0.6,1.9v17.5c0,2-0.8,2.9-2.4,2.9c-0.4,0-0.8-0.1-1.1-0.2c-0.3-0.1-0.6-0.3-0.9-0.6c-0.3-0.3-0.5-0.6-0.8-0.9
		c-0.2-0.3-0.5-0.7-0.7-1l-8.5-13v13.1c0,0.9-0.2,1.5-0.6,1.9c-0.4,0.4-0.9,0.7-1.5,0.7c-0.6,0-1.2-0.2-1.5-0.7
		c-0.4-0.4-0.6-1.1-0.6-1.9V70.7c0-0.7,0.1-1.3,0.2-1.7c0.2-0.5,0.5-0.8,1-1.1c0.4-0.3,0.9-0.4,1.4-0.4c0.4,0,0.8,0.1,1,0.2
		c0.3,0.1,0.5,0.3,0.8,0.5c0.2,0.2,0.4,0.5,0.7,0.9C37.2,69.4,37.5,69.7,37.7,70.1L37.7,70.1z M70.2,71.3H60v5.5h9.4
		c0.7,0,1.2,0.2,1.5,0.5c0.3,0.3,0.5,0.7,0.5,1.2c0,0.5-0.2,0.9-0.5,1.2c-0.3,0.3-0.9,0.5-1.6,0.5H60v6.4h10.5
		c0.7,0,1.2,0.2,1.6,0.5c0.4,0.3,0.5,0.8,0.5,1.3c0,0.5-0.2,1-0.5,1.3c-0.4,0.3-0.9,0.5-1.6,0.5H58.3c-1,0-1.7-0.2-2.1-0.7
		c-0.4-0.4-0.6-1.1-0.6-2.1V70.6c0-0.6,0.1-1.2,0.3-1.6c0.2-0.4,0.5-0.7,0.9-0.9c0.4-0.2,0.9-0.3,1.6-0.3h11.9
		c0.7,0,1.3,0.2,1.6,0.5c0.3,0.3,0.5,0.7,0.5,1.3c0,0.5-0.2,1-0.5,1.3C71.5,71.1,70.9,71.3,70.2,71.3L70.2,71.3z M92.1,86.6
		l-3.6-13.4l-3.6,13.4c-0.3,1-0.5,1.7-0.7,2.2c-0.2,0.4-0.5,0.8-0.9,1.2c-0.4,0.3-1,0.5-1.7,0.5c-0.6,0-1-0.1-1.4-0.3
		c-0.4-0.2-0.7-0.5-0.9-0.9c-0.2-0.4-0.4-0.8-0.5-1.4c-0.1-0.5-0.3-1-0.4-1.4l-3.7-15c-0.2-0.9-0.3-1.5-0.3-2c0-0.6,0.2-1.1,0.6-1.5
		c0.4-0.4,0.9-0.6,1.5-0.6c0.8,0,1.4,0.3,1.7,0.8c0.3,0.5,0.5,1.3,0.7,2.3l2.9,13l3.3-12.2c0.2-0.9,0.5-1.6,0.7-2.1
		c0.2-0.5,0.5-0.9,0.9-1.3c0.4-0.4,1-0.5,1.8-0.5c0.8,0,1.4,0.2,1.8,0.6c0.4,0.4,0.7,0.8,0.9,1.2c0.2,0.4,0.4,1.2,0.7,2.2l3.3,12.2
		l2.9-13c0.1-0.7,0.3-1.2,0.4-1.6c0.1-0.4,0.3-0.7,0.7-1c0.3-0.3,0.8-0.5,1.3-0.5c0.6,0,1.1,0.2,1.5,0.6c0.4,0.4,0.6,0.9,0.6,1.5
		c0,0.4-0.1,1.1-0.3,2l-3.7,15c-0.3,1-0.5,1.8-0.6,2.2c-0.2,0.5-0.5,0.9-0.9,1.2c-0.4,0.4-1,0.5-1.7,0.5c-0.7,0-1.2-0.2-1.7-0.5
		c-0.4-0.3-0.7-0.7-0.9-1.2C92.6,88.4,92.4,87.6,92.1,86.6L92.1,86.6z"/>
</g>
</svg>
