<?xml version="1.0" encoding="utf-8"?>
<!-- Generator: Adobe Illustrator 22.1.0, SVG Export Plug-In . SVG Version: 6.00 Build 0)  -->
<svg version="1.1" id="_x31_" xmlns="http://www.w3.org/2000/svg" xmlns:xlink="http://www.w3.org/1999/xlink" x="0px" y="0px"
	 viewBox="0 0 96.7 110.1" style="enable-background:new 0 0 96.7 110.1;" xml:space="preserve">
<style type="text/css">
	
		.st0{fill-rule:evenodd;clip-rule:evenodd;fill:none;stroke:#C4CDCF;stroke-width:4;stroke-linecap:round;stroke-linejoin:round;stroke-miterlimit:22.9256;}
	.st1{fill-rule:evenodd;clip-rule:evenodd;fill:none;stroke:#C4CDCF;stroke-width:4;stroke-miterlimit:22.9256;}
</style>
<path class="st0" d="M21.1,2.3H75c3.7,0,6.7,3,6.7,6.7v57.7l-8.6,34.6c-0.9,3.6-3,6.7-6.7,6.7H29.7c-3.7,0-5.8-3.1-6.7-6.7
	l-8.6-35.2V9C14.4,5.3,17.4,2.3,21.1,2.3z"/>
<path class="st0" d="M81.7,59.5l-6.7-26.8c-1-3.9-3.3-7.2-7.2-7.2H28.3c-4,0-6.3,3.4-7.2,7.2l-6.6,26.8"/>
<polyline class="st0" points="14.4,25.3 2.1,25.3 2.1,7.2 "/>
<polyline class="st0" points="16.2,73.3 2.1,73.3 2.1,91.4 "/>
<polyline class="st0" points="81.7,25.3 94.1,25.3 94.1,7.2 "/>
<polyline class="st0" points="80,73.3 94.1,73.3 94.1,91.4 "/>
<path class="st1" d="M4.8,25.3c0,37.1,0,48,0,48"/>
<path class="st1" d="M90.7,25.3c0,37.1,0,48,0,48"/>
</svg>
