<?xml version="1.0" encoding="utf-8"?>
<!-- Generator: Adobe Illustrator 22.1.0, SVG Export Plug-In . SVG Version: 6.00 Build 0)  -->
<svg version="1.1" id="_x31_" xmlns="http://www.w3.org/2000/svg" xmlns:xlink="http://www.w3.org/1999/xlink" x="0px" y="0px"
	 viewBox="0 0 110.8 111" style="enable-background:new 0 0 110.8 111;" xml:space="preserve">
<style type="text/css">
	
		.st0{fill-rule:evenodd;clip-rule:evenodd;fill:none;stroke:#C4CDCF;stroke-width:4;stroke-linejoin:round;stroke-miterlimit:22.9256;}
	
		.st1{fill-rule:evenodd;clip-rule:evenodd;fill:none;stroke:#C4CDCF;stroke-width:4;stroke-linecap:round;stroke-miterlimit:22.9256;}
	
		.st2{fill-rule:evenodd;clip-rule:evenodd;fill:none;stroke:#C4CDCF;stroke-width:2;stroke-linejoin:round;stroke-miterlimit:22.9256;}
</style>
<circle class="st0" cx="32.6" cy="77.9" r="11.2"/>
<path class="st0" d="M47.1,47.6c4.4-4.4,11.4-4.4,15.8,0c4.4,4.4,4.4,11.4,0,15.8c-4.4,4.4-11.4,4.4-15.8,0
	C42.7,59.1,42.7,52,47.1,47.6z"/>
<path class="st0" d="M69.9,24.8c4.4-4.4,11.4-4.4,15.8,0c4.4,4.4,4.4,11.4,0,15.8c-4.4,4.4-11.4,4.4-15.8,0
	C65.6,36.3,65.6,29.2,69.9,24.8z"/>
<rect x="0" y="35.3" transform="matrix(0.7071 -0.7071 0.7071 0.7071 -22.8489 55.311)" class="st0" width="110.6" height="39.9"/>
<path class="st1" d="M47.1,93.4c25.2,33.4,79.7-2.6,44.7-44.6 M59.4,21.7C53,19.3,44.7,18.6,30.9,18C20.8,17.6,2,18,2,18"/>
<rect x="7.2" y="13.3" class="st2" width="16.6" height="9.1"/>
</svg>
